<?xml version="1.0" encoding="UTF-8" standalone="no"?>
<!DOCTYPE svg PUBLIC "-//W3C//DTD SVG 1.1//EN"
 "http://www.w3.org/Graphics/SVG/1.1/DTD/svg11.dtd">
<!-- Generated by graphviz version 2.40.1 (20161225.0304)
 -->
<!-- Title: ClearLinux_Automation_Flow Pages: 1 -->
<svg width="2422pt" height="494pt"
 viewBox="0.00 0.00 2421.90 494.00" xmlns="http://www.w3.org/2000/svg" xmlns:xlink="http://www.w3.org/1999/xlink">
<g id="graph0" class="graph" transform="scale(1 1) rotate(0) translate(4 490)">
<title>ClearLinux_Automation_Flow</title>
<polygon fill="#ffffff" stroke="transparent" points="-4,4 -4,-490 2417.903,-490 2417.903,4 -4,4"/>
<g id="clust2" class="cluster">
<title>cluster_deploy</title>
<polygon fill="none" stroke="#c0c0c0" points="1085.5231,-251 1085.5231,-387 2405.903,-387 2405.903,-251 1085.5231,-251"/>
<text text-anchor="middle" x="1745.7131" y="-370.4" font-family="Times,serif" font-size="14.00" fill="#000000">部署阶段</text>
</g>
<g id="clust3" class="cluster">
<title>cluster_operation</title>
<polygon fill="none" stroke="#c0c0c0" points="235.9702,-8 235.9702,-243 1211.6031,-243 1211.6031,-8 235.9702,-8"/>
<text text-anchor="middle" x="723.7867" y="-226.4" font-family="Times,serif" font-size="14.00" fill="#000000">运维阶段</text>
</g>
<g id="clust4" class="cluster">
<title>cluster_security</title>
<polygon fill="none" stroke="#c0c0c0" points="628.2943,-395 628.2943,-478 1519.1449,-478 1519.1449,-395 628.2943,-395"/>
<text text-anchor="middle" x="1073.7196" y="-461.4" font-family="Times,serif" font-size="14.00" fill="#000000">安全与合规阶段</text>
</g>
<g id="clust1" class="cluster">
<title>cluster_build</title>
<polygon fill="none" stroke="#c0c0c0" points="8,-261 8,-344 925.1906,-344 925.1906,-261 8,-261"/>
<text text-anchor="middle" x="466.5953" y="-327.4" font-family="Times,serif" font-size="14.00" fill="#000000">构建与发布阶段</text>
</g>
<!-- mixer_tools -->
<g id="node1" class="node">
<title>mixer_tools</title>
<polygon fill="#add8e6" stroke="#000000" points="137.9595,-310.6019 16.0135,-310.6019 16.0135,-269.3981 137.9595,-269.3981 137.9595,-310.6019"/>
<text text-anchor="middle" x="76.9865" y="-294.2" font-family="Times,serif" font-size="14.00" fill="#000000">mixer&#45;tools&#13;</text>
<text text-anchor="middle" x="76.9865" y="-277.4" font-family="Times,serif" font-size="14.00" fill="#000000">软件更新混合器</text>
</g>
<!-- autospec -->
<g id="node2" class="node">
<title>autospec</title>
<polygon fill="#add8e6" stroke="#000000" points="526.3564,-310.6019 413.6942,-310.6019 413.6942,-269.3981 526.3564,-269.3981 526.3564,-310.6019"/>
<text text-anchor="middle" x="470.0253" y="-294.2" font-family="Times,serif" font-size="14.00" fill="#000000">autospec&#13;</text>
<text text-anchor="middle" x="470.0253" y="-277.4" font-family="Times,serif" font-size="14.00" fill="#000000">RPM 打包自动化</text>
</g>
<!-- mixer_tools&#45;&gt;autospec -->
<g id="edge1" class="edge">
<title>mixer_tools&#45;&gt;autospec</title>
<path fill="none" stroke="#000000" d="M137.9676,-290C209.9414,-290 329.2068,-290 403.508,-290"/>
<polygon fill="#000000" stroke="#000000" points="403.6843,-293.5001 413.6843,-290 403.6842,-286.5001 403.6843,-293.5001"/>
<text text-anchor="middle" x="310.29" y="-294.2" font-family="Times,serif" font-size="14.00" fill="#000000">生成包</text>
</g>
<!-- swupd_client -->
<g id="node9" class="node">
<title>swupd_client</title>
<polygon fill="#add8e6" stroke="#000000" points="376.4301,-184.6019 244.1499,-184.6019 244.1499,-143.3981 376.4301,-143.3981 376.4301,-184.6019"/>
<text text-anchor="middle" x="310.29" y="-168.2" font-family="Times,serif" font-size="14.00" fill="#000000">swupd&#45;client&#13;</text>
<text text-anchor="middle" x="310.29" y="-151.4" font-family="Times,serif" font-size="14.00" fill="#000000">软件更新客户端</text>
</g>
<!-- mixer_tools&#45;&gt;swupd_client -->
<g id="edge15" class="edge">
<title>mixer_tools&#45;&gt;swupd_client</title>
<path fill="none" stroke="#000000" d="M115.2506,-269.3348C155.6811,-247.4995 219.4938,-213.0362 263.0368,-189.52"/>
<polygon fill="#000000" stroke="#000000" points="264.8694,-192.5081 272.005,-184.6765 261.543,-186.349 264.8694,-192.5081"/>
<text text-anchor="middle" x="190.9716" y="-249.2" font-family="Times,serif" font-size="14.00" fill="#000000">提供更新内容</text>
</g>
<!-- unbundle -->
<g id="node3" class="node">
<title>unbundle</title>
<polygon fill="#add8e6" stroke="#000000" points="917.2141,-310.6019 784.1201,-310.6019 784.1201,-269.3981 917.2141,-269.3981 917.2141,-310.6019"/>
<text text-anchor="middle" x="850.6671" y="-294.2" font-family="Times,serif" font-size="14.00" fill="#000000">unbundle&#13;</text>
<text text-anchor="middle" x="850.6671" y="-277.4" font-family="Times,serif" font-size="14.00" fill="#000000">Bundle 依赖解析器</text>
</g>
<!-- autospec&#45;&gt;unbundle -->
<g id="edge2" class="edge">
<title>autospec&#45;&gt;unbundle</title>
<path fill="none" stroke="#000000" d="M526.6002,-290C592.1697,-290 700.5655,-290 773.7491,-290"/>
<polygon fill="#000000" stroke="#000000" points="773.8338,-293.5001 783.8338,-290 773.8338,-286.5001 773.8338,-293.5001"/>
<text text-anchor="middle" x="688.0422" y="-294.2" font-family="Times,serif" font-size="14.00" fill="#000000">解决依赖</text>
</g>
<!-- cve_check -->
<g id="node15" class="node">
<title>cve_check</title>
<polygon fill="#add8e6" stroke="#000000" points="740.0392,-444.6019 636.0452,-444.6019 636.0452,-403.3981 740.0392,-403.3981 740.0392,-444.6019"/>
<text text-anchor="middle" x="688.0422" y="-428.2" font-family="Times,serif" font-size="14.00" fill="#000000">cve&#45;check&#45;tool&#13;</text>
<text text-anchor="middle" x="688.0422" y="-411.4" font-family="Times,serif" font-size="14.00" fill="#000000">CVE 漏洞扫描</text>
</g>
<!-- autospec&#45;&gt;cve_check -->
<g id="edge16" class="edge">
<title>autospec&#45;&gt;cve_check</title>
<path fill="none" stroke="#000000" d="M503.6127,-310.6438C541.7814,-334.1035 604.1474,-372.4357 645.6384,-397.9373"/>
<polygon fill="#000000" stroke="#000000" points="644.0645,-401.0782 654.4167,-403.3327 647.7299,-395.1145 644.0645,-401.0782"/>
<text text-anchor="middle" x="577.6908" y="-376.2" font-family="Times,serif" font-size="14.00" fill="#000000">扫描包漏洞</text>
</g>
<!-- clr_bundles -->
<g id="node4" class="node">
<title>clr_bundles</title>
<polygon fill="#add8e6" stroke="#000000" points="1181.4316,-310.6019 1093.5536,-310.6019 1093.5536,-269.3981 1181.4316,-269.3981 1181.4316,-310.6019"/>
<text text-anchor="middle" x="1137.4926" y="-294.2" font-family="Times,serif" font-size="14.00" fill="#000000">clr&#45;bundles&#13;</text>
<text text-anchor="middle" x="1137.4926" y="-277.4" font-family="Times,serif" font-size="14.00" fill="#000000">Bundle 定义</text>
</g>
<!-- unbundle&#45;&gt;clr_bundles -->
<g id="edge3" class="edge">
<title>unbundle&#45;&gt;clr_bundles</title>
<path fill="none" stroke="#000000" d="M917.1916,-290C967.6077,-290 1036.0227,-290 1083.1682,-290"/>
<polygon fill="#000000" stroke="#000000" points="1083.1871,-293.5001 1093.1871,-290 1083.1871,-286.5001 1083.1871,-293.5001"/>
<text text-anchor="middle" x="991.57" y="-294.2" font-family="Times,serif" font-size="14.00" fill="#000000">验证 bundle 定义</text>
</g>
<!-- dockerfiles -->
<g id="node5" class="node">
<title>dockerfiles</title>
<polygon fill="#add8e6" stroke="#000000" points="1524.6482,-310.6019 1369.2748,-310.6019 1369.2748,-269.3981 1524.6482,-269.3981 1524.6482,-310.6019"/>
<text text-anchor="middle" x="1446.9615" y="-294.2" font-family="Times,serif" font-size="14.00" fill="#000000">dockerfiles&#13;</text>
<text text-anchor="middle" x="1446.9615" y="-277.4" font-family="Times,serif" font-size="14.00" fill="#000000">基于 ClearLinux 的容器</text>
</g>
<!-- clr_bundles&#45;&gt;dockerfiles -->
<g id="edge4" class="edge">
<title>clr_bundles&#45;&gt;dockerfiles</title>
<path fill="none" stroke="#000000" d="M1181.5033,-290C1227.5489,-290 1301.0652,-290 1359.0687,-290"/>
<polygon fill="#000000" stroke="#000000" points="1359.3395,-293.5001 1369.3394,-290 1359.3394,-286.5001 1359.3395,-293.5001"/>
<text text-anchor="middle" x="1289.202" y="-294.2" font-family="Times,serif" font-size="14.00" fill="#000000">构建容器镜像</text>
</g>
<!-- docker_brew -->
<g id="node6" class="node">
<title>docker_brew</title>
<polygon fill="#add8e6" stroke="#000000" points="1856.6614,-300.6019 1705.9232,-300.6019 1705.9232,-259.3981 1856.6614,-259.3981 1856.6614,-300.6019"/>
<text text-anchor="middle" x="1781.2923" y="-284.2" font-family="Times,serif" font-size="14.00" fill="#000000">docker&#45;brew&#45;clearlinux&#13;</text>
<text text-anchor="middle" x="1781.2923" y="-267.4" font-family="Times,serif" font-size="14.00" fill="#000000">Dockerhub 快照</text>
</g>
<!-- dockerfiles&#45;&gt;docker_brew -->
<g id="edge5" class="edge">
<title>dockerfiles&#45;&gt;docker_brew</title>
<path fill="none" stroke="#000000" d="M1524.9253,-287.6681C1576.1342,-286.1364 1643.1374,-284.1323 1695.8016,-282.5571"/>
<polygon fill="#000000" stroke="#000000" points="1695.9065,-286.0556 1705.7974,-282.2581 1695.6972,-279.0587 1695.9065,-286.0556"/>
<text text-anchor="middle" x="1615.2063" y="-290.2" font-family="Times,serif" font-size="14.00" fill="#000000">推送到 Dockerhub</text>
</g>
<!-- cloud_native -->
<g id="node7" class="node">
<title>cloud_native</title>
<polygon fill="#add8e6" stroke="#000000" points="2130.2287,-310.6019 2004.2019,-310.6019 2004.2019,-269.3981 2130.2287,-269.3981 2130.2287,-310.6019"/>
<text text-anchor="middle" x="2067.2153" y="-294.2" font-family="Times,serif" font-size="14.00" fill="#000000">cloud&#45;native&#45;setup&#13;</text>
<text text-anchor="middle" x="2067.2153" y="-277.4" font-family="Times,serif" font-size="14.00" fill="#000000">Kubernetes 自动化</text>
</g>
<!-- dockerfiles&#45;&gt;cloud_native -->
<g id="edge6" class="edge">
<title>dockerfiles&#45;&gt;cloud_native</title>
<path fill="none" stroke="#000000" d="M1494.2099,-310.6149C1527.4034,-323.2432 1573.2027,-337 1615.2063,-337 1615.2063,-337 1615.2063,-337 1930.4677,-337 1961.4339,-337 1994.3074,-326.0879 2020.0607,-314.7796"/>
<polygon fill="#000000" stroke="#000000" points="2021.5585,-317.9434 2029.2099,-310.6149 2018.6584,-311.5724 2021.5585,-317.9434"/>
<text text-anchor="middle" x="1781.2923" y="-341.2" font-family="Times,serif" font-size="14.00" fill="#000000">部署 Kubernetes</text>
</g>
<!-- docker_brew&#45;&gt;cloud_native -->
<g id="edge17" class="edge">
<title>docker_brew&#45;&gt;cloud_native</title>
<path fill="none" stroke="#000000" d="M1856.7892,-282.6405C1899.128,-284.1212 1951.7101,-285.9603 1993.7197,-287.4295"/>
<polygon fill="#000000" stroke="#000000" points="1993.7675,-290.9332 2003.8838,-287.785 1994.0122,-283.9375 1993.7675,-290.9332"/>
<text text-anchor="middle" x="1930.4677" y="-290.2" font-family="Times,serif" font-size="14.00" fill="#000000">提供基础镜像</text>
</g>
<!-- micro_config -->
<g id="node8" class="node">
<title>micro_config</title>
<polygon fill="#add8e6" stroke="#000000" points="2397.9076,-310.6019 2271.8892,-310.6019 2271.8892,-269.3981 2397.9076,-269.3981 2397.9076,-310.6019"/>
<text text-anchor="middle" x="2334.8984" y="-294.2" font-family="Times,serif" font-size="14.00" fill="#000000">micro&#45;config&#45;drive&#13;</text>
<text text-anchor="middle" x="2334.8984" y="-277.4" font-family="Times,serif" font-size="14.00" fill="#000000">Cloud&#45;init 实现</text>
</g>
<!-- cloud_native&#45;&gt;micro_config -->
<g id="edge7" class="edge">
<title>cloud_native&#45;&gt;micro_config</title>
<path fill="none" stroke="#000000" d="M2130.3135,-290C2169.6414,-290 2220.4052,-290 2261.5265,-290"/>
<polygon fill="#000000" stroke="#000000" points="2261.7605,-293.5001 2271.7605,-290 2261.7605,-286.5001 2261.7605,-293.5001"/>
<text text-anchor="middle" x="2201.0579" y="-294.2" font-family="Times,serif" font-size="14.00" fill="#000000">配置实例</text>
</g>
<!-- swupd_overdue -->
<g id="node10" class="node">
<title>swupd_overdue</title>
<polygon fill="#add8e6" stroke="#000000" points="741.6655,-209.6019 634.4189,-209.6019 634.4189,-168.3981 741.6655,-168.3981 741.6655,-209.6019"/>
<text text-anchor="middle" x="688.0422" y="-193.2" font-family="Times,serif" font-size="14.00" fill="#000000">swupd&#45;overdue&#13;</text>
<text text-anchor="middle" x="688.0422" y="-176.4" font-family="Times,serif" font-size="14.00" fill="#000000">启动时更新检查</text>
</g>
<!-- swupd_client&#45;&gt;swupd_overdue -->
<g id="edge8" class="edge">
<title>swupd_client&#45;&gt;swupd_overdue</title>
<path fill="none" stroke="#000000" d="M376.5217,-168.3833C446.2601,-172.9986 555.2991,-180.2149 624.1448,-184.7712"/>
<polygon fill="#000000" stroke="#000000" points="624.2095,-188.2831 634.4189,-185.4512 624.6718,-181.2983 624.2095,-188.2831"/>
<text text-anchor="middle" x="470.0253" y="-182.2" font-family="Times,serif" font-size="14.00" fill="#000000">检查更新</text>
</g>
<!-- clr_service -->
<g id="node11" class="node">
<title>clr_service</title>
<polygon fill="#add8e6" stroke="#000000" points="747.2452,-149.6019 628.8392,-149.6019 628.8392,-108.3981 747.2452,-108.3981 747.2452,-149.6019"/>
<text text-anchor="middle" x="688.0422" y="-133.2" font-family="Times,serif" font-size="14.00" fill="#000000">clr&#45;service&#45;restart&#13;</text>
<text text-anchor="middle" x="688.0422" y="-116.4" font-family="Times,serif" font-size="14.00" fill="#000000">自动重启服务</text>
</g>
<!-- swupd_client&#45;&gt;clr_service -->
<g id="edge9" class="edge">
<title>swupd_client&#45;&gt;clr_service</title>
<path fill="none" stroke="#000000" d="M376.623,-153.8099C388.9018,-152.1194 401.6297,-150.4974 413.6098,-149.2 483.2499,-141.6583 563.1428,-136.1291 618.699,-132.7812"/>
<polygon fill="#000000" stroke="#000000" points="619.0069,-136.2691 628.7814,-132.1814 618.5911,-129.2815 619.0069,-136.2691"/>
<text text-anchor="middle" x="470.0253" y="-153.2" font-family="Times,serif" font-size="14.00" fill="#000000">触发服务重启</text>
</g>
<!-- telemetry_client -->
<g id="node12" class="node">
<title>telemetry_client</title>
<polygon fill="#add8e6" stroke="#000000" points="746.2208,-73.6019 629.8636,-73.6019 629.8636,-32.3981 746.2208,-32.3981 746.2208,-73.6019"/>
<text text-anchor="middle" x="688.0422" y="-57.2" font-family="Times,serif" font-size="14.00" fill="#000000">telemetrics&#45;client&#13;</text>
<text text-anchor="middle" x="688.0422" y="-40.4" font-family="Times,serif" font-size="14.00" fill="#000000">客户端遥测</text>
</g>
<!-- swupd_client&#45;&gt;telemetry_client -->
<g id="edge10" class="edge">
<title>swupd_client&#45;&gt;telemetry_client</title>
<path fill="none" stroke="#000000" d="M352.0691,-143.3786C370.6075,-134.7804 392.8796,-125.1909 413.6098,-118.2 482.4457,-94.9863 563.6546,-76.7828 619.7833,-65.5777"/>
<polygon fill="#000000" stroke="#000000" points="620.482,-69.0074 629.614,-63.6355 619.1253,-62.1401 620.482,-69.0074"/>
<text text-anchor="middle" x="470.0253" y="-122.2" font-family="Times,serif" font-size="14.00" fill="#000000">报告更新状态</text>
</g>
<!-- telemetry_backend -->
<g id="node13" class="node">
<title>telemetry_backend</title>
<polygon fill="#add8e6" stroke="#000000" points="1203.7138,-73.6019 1071.2714,-73.6019 1071.2714,-32.3981 1203.7138,-32.3981 1203.7138,-73.6019"/>
<text text-anchor="middle" x="1137.4926" y="-57.2" font-family="Times,serif" font-size="14.00" fill="#000000">telemetrics&#45;backend&#13;</text>
<text text-anchor="middle" x="1137.4926" y="-40.4" font-family="Times,serif" font-size="14.00" fill="#000000">遥测收集器</text>
</g>
<!-- telemetry_client&#45;&gt;telemetry_backend -->
<g id="edge11" class="edge">
<title>telemetry_client&#45;&gt;telemetry_backend</title>
<path fill="none" stroke="#000000" d="M746.3392,-53C826.8437,-53 972.1763,-53 1061.227,-53"/>
<polygon fill="#000000" stroke="#000000" points="1061.2653,-56.5001 1071.2652,-53 1061.2652,-49.5001 1061.2653,-56.5001"/>
<text text-anchor="middle" x="850.6671" y="-57.2" font-family="Times,serif" font-size="14.00" fill="#000000">发送指标</text>
</g>
<!-- tallow -->
<g id="node14" class="node">
<title>tallow</title>
<polygon fill="#add8e6" stroke="#000000" points="374.9577,-57.6019 245.6223,-57.6019 245.6223,-16.3981 374.9577,-16.3981 374.9577,-57.6019"/>
<text text-anchor="middle" x="310.29" y="-41.2" font-family="Times,serif" font-size="14.00" fill="#000000">tallow&#13;</text>
<text text-anchor="middle" x="310.29" y="-24.4" font-family="Times,serif" font-size="14.00" fill="#000000">SSH 暴力破解防护</text>
</g>
<!-- tallow&#45;&gt;telemetry_client -->
<g id="edge12" class="edge">
<title>tallow&#45;&gt;telemetry_client</title>
<path fill="none" stroke="#000000" d="M375.2279,-39.7505C443.3476,-42.6358 549.9754,-47.1521 619.4389,-50.0943"/>
<polygon fill="#000000" stroke="#000000" points="619.6934,-53.6081 629.8326,-50.5345 619.9897,-46.6143 619.6934,-53.6081"/>
<text text-anchor="middle" x="470.0253" y="-51.2" font-family="Times,serif" font-size="14.00" fill="#000000">报告安全事件</text>
</g>
<!-- kernel_check -->
<g id="node16" class="node">
<title>kernel_check</title>
<polygon fill="#add8e6" stroke="#000000" points="1209.079,-444.6019 1065.9062,-444.6019 1065.9062,-403.3981 1209.079,-403.3981 1209.079,-444.6019"/>
<text text-anchor="middle" x="1137.4926" y="-428.2" font-family="Times,serif" font-size="14.00" fill="#000000">kernel&#45;config&#45;checker&#13;</text>
<text text-anchor="middle" x="1137.4926" y="-411.4" font-family="Times,serif" font-size="14.00" fill="#000000">内核安全检查</text>
</g>
<!-- cve_check&#45;&gt;kernel_check -->
<g id="edge13" class="edge">
<title>cve_check&#45;&gt;kernel_check</title>
<path fill="none" stroke="#000000" d="M740.0389,-424C817.4353,-424 963.6629,-424 1055.5421,-424"/>
<polygon fill="#000000" stroke="#000000" points="1055.6394,-427.5001 1065.6393,-424 1055.6393,-420.5001 1055.6394,-427.5001"/>
<text text-anchor="middle" x="850.6671" y="-428.2" font-family="Times,serif" font-size="14.00" fill="#000000">验证内核配置</text>
</g>
<!-- clrtrust -->
<g id="node17" class="node">
<title>clrtrust</title>
<polygon fill="#add8e6" stroke="#000000" points="1511.3288,-444.6019 1382.5942,-444.6019 1382.5942,-403.3981 1511.3288,-403.3981 1511.3288,-444.6019"/>
<text text-anchor="middle" x="1446.9615" y="-428.2" font-family="Times,serif" font-size="14.00" fill="#000000">clrtrust&#13;</text>
<text text-anchor="middle" x="1446.9615" y="-411.4" font-family="Times,serif" font-size="14.00" fill="#000000">TLS 信任存储管理</text>
</g>
<!-- kernel_check&#45;&gt;clrtrust -->
<g id="edge14" class="edge">
<title>kernel_check&#45;&gt;clrtrust</title>
<path fill="none" stroke="#000000" d="M1209.2688,-424C1258.2971,-424 1323.1014,-424 1372.6595,-424"/>
<polygon fill="#000000" stroke="#000000" points="1372.675,-427.5001 1382.6749,-424 1372.6749,-420.5001 1372.675,-427.5001"/>
<text text-anchor="middle" x="1289.202" y="-428.2" font-family="Times,serif" font-size="14.00" fill="#000000">更新安全证书</text>
</g>
</g>
</svg>
