<?xml version="1.0" encoding="UTF-8" standalone="no"?>
<!DOCTYPE svg PUBLIC "-//W3C//DTD SVG 1.1//EN"
 "http://www.w3.org/Graphics/SVG/1.1/DTD/svg11.dtd">
<!-- Generated by graphviz version 2.40.1 (20161225.0304)
 -->
<!-- Title: AOSC_Package_Management_Graph Pages: 1 -->
<svg width="1949pt" height="855pt"
 viewBox="0.00 0.00 1949.00 855.20" xmlns="http://www.w3.org/2000/svg" xmlns:xlink="http://www.w3.org/1999/xlink">
<g id="graph0" class="graph" transform="scale(1 1) rotate(0) translate(4 851.2)">
<title>AOSC_Package_Management_Graph</title>
<polygon fill="#ffffff" stroke="transparent" points="-4,4 -4,-851.2 1945,-851.2 1945,4 -4,4"/>
<g id="clust1" class="cluster">
<title>cluster_build</title>
<polygon fill="none" stroke="#add8e6" points="1452,-234.8 1452,-839.2 1933,-839.2 1933,-234.8 1452,-234.8"/>
<text text-anchor="middle" x="1692.5" y="-822.6" font-family="Times,serif" font-size="14.00" fill="#000000">1. 构建环节：源码→.deb包</text>
</g>
<g id="clust2" class="cluster">
<title>cluster_user</title>
<polygon fill="none" stroke="#000000" points="8,-8 8,-411.6 509,-411.6 509,-8 8,-8"/>
<text text-anchor="middle" x="258.5" y="-395" font-family="Times,serif" font-size="14.00" fill="#000000">2. 用户端管理：用户操作入口</text>
</g>
<g id="clust3" class="cluster">
<title>cluster_dep_meta</title>
<polygon fill="none" stroke="#ffa500" points="517,-329.2 517,-411.6 1312,-411.6 1312,-329.2 517,-329.2"/>
<text text-anchor="middle" x="914.5" y="-395" font-family="Times,serif" font-size="14.00" fill="#000000">3. 依赖与元数据：保障兼容性</text>
</g>
<g id="clust4" class="cluster">
<title>cluster_repo</title>
<polygon fill="none" stroke="#a020f0" points="910,-446.4 910,-528.8 1444,-528.8 1444,-446.4 910,-446.4"/>
<text text-anchor="middle" x="1177" y="-512.2" font-family="Times,serif" font-size="14.00" fill="#000000">4. 仓库分发：包存储与同步</text>
</g>
<g id="clust5" class="cluster">
<title>cluster_deploy</title>
<polygon fill="none" stroke="#ff0000" points="230,-446.4 230,-684 463,-684 463,-446.4 230,-446.4"/>
<text text-anchor="middle" x="346.5" y="-667.4" font-family="Times,serif" font-size="14.00" fill="#000000">5. 系统部署：初始化系统包环境</text>
</g>
<!-- aosc_os_abbs -->
<g id="node1" class="node">
<title>aosc_os_abbs</title>
<polygon fill="#e0ffff" stroke="#000000" points="1707.4538,-806.2019 1488.5462,-806.2019 1488.5462,-764.9981 1707.4538,-764.9981 1707.4538,-806.2019"/>
<text text-anchor="middle" x="1598" y="-789.8" font-family="Times,serif" font-size="14.00" fill="#000000">aosc&#45;os&#45;abbs</text>
<text text-anchor="middle" x="1598" y="-773" font-family="Times,serif" font-size="14.00" fill="#000000">(构建元数据：.ab脚本/补丁/依赖)</text>
</g>
<!-- acbs -->
<g id="node2" class="node">
<title>acbs</title>
<polygon fill="#e0ffff" stroke="#000000" points="1924.9756,-651.0019 1779.0244,-651.0019 1779.0244,-609.7981 1924.9756,-609.7981 1924.9756,-651.0019"/>
<text text-anchor="middle" x="1852" y="-634.6" font-family="Times,serif" font-size="14.00" fill="#000000">ACBS</text>
<text text-anchor="middle" x="1852" y="-617.8" font-family="Times,serif" font-size="14.00" fill="#000000">(构建树管理/依赖协调)</text>
</g>
<!-- aosc_os_abbs&#45;&gt;acbs -->
<g id="edge1" class="edge">
<title>aosc_os_abbs&#45;&gt;acbs</title>
<path fill="none" stroke="#000000" d="M1634.4544,-764.9475C1669.7003,-744.8026 1724.4562,-713.0379 1771,-684 1784.8484,-675.3602 1799.8048,-665.5909 1813.0514,-656.7815"/>
<polygon fill="#000000" stroke="#000000" points="1815.1081,-659.6167 1821.4805,-651.1525 1811.2206,-653.7954 1815.1081,-659.6167"/>
<text text-anchor="middle" x="1767.9986" y="-715.2" font-family="Times,serif" font-size="14.00" fill="#000000">提供构建元数据</text>
</g>
<!-- find_deps -->
<g id="node6" class="node">
<title>find_deps</title>
<polygon fill="#e0ffff" stroke="#000000" points="1761.7619,-651.0019 1636.2381,-651.0019 1636.2381,-609.7981 1761.7619,-609.7981 1761.7619,-651.0019"/>
<text text-anchor="middle" x="1699" y="-634.6" font-family="Times,serif" font-size="14.00" fill="#000000">find&#45;deps</text>
<text text-anchor="middle" x="1699" y="-617.8" font-family="Times,serif" font-size="14.00" fill="#000000">(ELF动态依赖检测)</text>
</g>
<!-- aosc_os_abbs&#45;&gt;find_deps -->
<g id="edge6" class="edge">
<title>aosc_os_abbs&#45;&gt;find_deps</title>
<path fill="none" stroke="#000000" stroke-dasharray="5,2" d="M1573.1679,-764.7436C1558.0296,-749.4452 1543.7069,-728.395 1555.719,-711 1574.969,-683.1237 1597.2866,-700.2715 1627,-684 1640.7707,-676.459 1654.8541,-666.5517 1666.8712,-657.3087"/>
<polygon fill="#000000" stroke="#000000" points="1669.1314,-659.984 1674.8314,-651.053 1664.8061,-654.4801 1669.1314,-659.984"/>
<text text-anchor="middle" x="1622.1405" y="-715.2" font-family="Times,serif" font-size="14.00" fill="#000000">提供ELF文件→依赖检测</text>
</g>
<!-- autobuild4 -->
<g id="node3" class="node">
<title>autobuild4</title>
<polygon fill="#e0ffff" stroke="#000000" points="1744.0294,-495.8019 1565.9706,-495.8019 1565.9706,-454.5981 1744.0294,-454.5981 1744.0294,-495.8019"/>
<text text-anchor="middle" x="1655" y="-479.4" font-family="Times,serif" font-size="14.00" fill="#000000">autobuild4</text>
<text text-anchor="middle" x="1655" y="-462.6" font-family="Times,serif" font-size="14.00" fill="#000000">(自动化编译/打包生成.deb)</text>
</g>
<!-- acbs&#45;&gt;autobuild4 -->
<g id="edge2" class="edge">
<title>acbs&#45;&gt;autobuild4</title>
<path fill="none" stroke="#000000" d="M1846.0488,-609.5326C1840.5064,-593.2188 1830.8388,-570.8561 1816,-555.8 1791.6412,-531.0845 1758.1319,-512.6477 1727.9893,-499.6918"/>
<polygon fill="#000000" stroke="#000000" points="1729.3336,-496.4604 1718.7566,-495.8461 1726.642,-502.9222 1729.3336,-496.4604"/>
<text text-anchor="middle" x="1872.7402" y="-560" font-family="Times,serif" font-size="14.00" fill="#000000">调用执行构建</text>
</g>
<!-- repo -->
<g id="node7" class="node">
<title>repo</title>
<polygon fill="#e0ffff" stroke="#000000" points="1606.1386,-284.2019 1459.8614,-284.2019 1459.8614,-242.9981 1606.1386,-242.9981 1606.1386,-284.2019"/>
<text text-anchor="middle" x="1533" y="-267.8" font-family="Times,serif" font-size="14.00" fill="#000000">AOSC软件仓库</text>
<text text-anchor="middle" x="1533" y="-251" font-family="Times,serif" font-size="14.00" fill="#000000">(存储预编译.deb包)</text>
</g>
<!-- autobuild4&#45;&gt;repo -->
<g id="edge3" class="edge">
<title>autobuild4&#45;&gt;repo</title>
<path fill="none" stroke="#000000" d="M1661.6487,-454.572C1669.9891,-424.5883 1680.5417,-368.2874 1657,-329.2 1646.3636,-311.5398 1629.2037,-298.3863 1610.9973,-288.6899"/>
<polygon fill="#000000" stroke="#000000" points="1612.5106,-285.5335 1601.9996,-284.203 1609.3867,-291.7978 1612.5106,-285.5335"/>
<text text-anchor="middle" x="1747.2048" y="-353.8" font-family="Times,serif" font-size="14.00" fill="#000000">输出.deb包→上传至仓库</text>
</g>
<!-- ciel -->
<g id="node4" class="node">
<title>ciel</title>
<polygon fill="#e0ffff" stroke="#000000" points="1617.9222,-651.0019 1460.0778,-651.0019 1460.0778,-609.7981 1617.9222,-609.7981 1617.9222,-651.0019"/>
<text text-anchor="middle" x="1539" y="-634.6" font-family="Times,serif" font-size="14.00" fill="#000000">ciel</text>
<text text-anchor="middle" x="1539" y="-617.8" font-family="Times,serif" font-size="14.00" fill="#000000">(容器化构建环境隔离)</text>
</g>
<!-- ciel&#45;&gt;autobuild4 -->
<g id="edge4" class="edge">
<title>ciel&#45;&gt;autobuild4</title>
<path fill="none" stroke="#000000" stroke-dasharray="5,2" d="M1536.4781,-609.7552C1535.5435,-593.9828 1536.4705,-572.2324 1545.7174,-555.8 1558.6731,-532.777 1581.2264,-514.4659 1602.4924,-501.1532"/>
<polygon fill="#000000" stroke="#000000" points="1604.4093,-504.0847 1611.1806,-495.936 1600.8057,-498.0836 1604.4093,-504.0847"/>
<text text-anchor="middle" x="1585.6413" y="-560" font-family="Times,serif" font-size="14.00" fill="#000000">提供标准化环境</text>
</g>
<!-- buildit -->
<g id="node5" class="node">
<title>buildit</title>
<polygon fill="#e0ffff" stroke="#000000" points="1910.8914,-806.2019 1753.1086,-806.2019 1753.1086,-764.9981 1910.8914,-764.9981 1910.8914,-806.2019"/>
<text text-anchor="middle" x="1832" y="-789.8" font-family="Times,serif" font-size="14.00" fill="#000000">buildit</text>
<text text-anchor="middle" x="1832" y="-773" font-family="Times,serif" font-size="14.00" fill="#000000">(远程批量构建自动化)</text>
</g>
<!-- buildit&#45;&gt;acbs -->
<g id="edge5" class="edge">
<title>buildit&#45;&gt;acbs</title>
<path fill="none" stroke="#000000" stroke-dasharray="5,2" d="M1834.6558,-764.9906C1838.0777,-738.4373 1844.0564,-692.0423 1848.022,-661.2696"/>
<polygon fill="#000000" stroke="#000000" points="1851.5263,-661.4599 1849.3332,-651.0946 1844.5837,-660.5652 1851.5263,-661.4599"/>
<text text-anchor="middle" x="1887.2672" y="-715.2" font-family="Times,serif" font-size="14.00" fill="#000000">触发远程构建</text>
</g>
<!-- find_deps&#45;&gt;autobuild4 -->
<g id="edge7" class="edge">
<title>find_deps&#45;&gt;autobuild4</title>
<path fill="none" stroke="#000000" stroke-dasharray="5,2" d="M1666.964,-609.7663C1654.8787,-600.0916 1642.4849,-587.4141 1635.9698,-572.6 1626.5946,-551.2824 1632.4243,-525.3236 1640.0166,-505.5672"/>
<polygon fill="#000000" stroke="#000000" points="1643.3306,-506.7137 1643.9508,-496.137 1636.8702,-504.0184 1643.3306,-506.7137"/>
<text text-anchor="middle" x="1725.0151" y="-560" font-family="Times,serif" font-size="14.00" fill="#000000">输出依赖列表→写入.deb元数据</text>
</g>
<!-- oma -->
<g id="node8" class="node">
<title>oma</title>
<polygon fill="#ffffe0" stroke="#000000" points="494.7547,-189.8019 271.2453,-189.8019 271.2453,-148.5981 494.7547,-148.5981 494.7547,-189.8019"/>
<text text-anchor="middle" x="383" y="-173.4" font-family="Times,serif" font-size="14.00" fill="#000000">oma</text>
<text text-anchor="middle" x="383" y="-156.6" font-family="Times,serif" font-size="14.00" fill="#000000">(主包管理器：安装/更新/卸载)</text>
</g>
<!-- repo&#45;&gt;oma -->
<g id="edge16" class="edge">
<title>repo&#45;&gt;oma</title>
<path fill="none" stroke="#000000" d="M1459.752,-257.5873C1266.9756,-241.7629 743.9833,-198.832 505.044,-179.2182"/>
<polygon fill="#000000" stroke="#000000" points="505.1785,-175.7176 494.9256,-178.3876 504.6057,-182.6941 505.1785,-175.7176"/>
<text text-anchor="middle" x="1082.9639" y="-212.2" font-family="Times,serif" font-size="14.00" fill="#000000">提供.deb包→下载</text>
</g>
<!-- dpkg -->
<g id="node9" class="node">
<title>dpkg</title>
<polygon fill="#ffffe0" stroke="#000000" points="157.5862,-57.4019 16.4138,-57.4019 16.4138,-16.1981 157.5862,-16.1981 157.5862,-57.4019"/>
<text text-anchor="middle" x="87" y="-41" font-family="Times,serif" font-size="14.00" fill="#000000">dpkg</text>
<text text-anchor="middle" x="87" y="-24.2" font-family="Times,serif" font-size="14.00" fill="#000000">(底层.deb安装引擎)</text>
</g>
<!-- oma&#45;&gt;dpkg -->
<g id="edge8" class="edge">
<title>oma&#45;&gt;dpkg</title>
<path fill="none" stroke="#000000" d="M271.1481,-148.7872C237.8311,-140.0667 202.0563,-127.9604 171.3976,-111.4 149.2178,-99.4195 127.9756,-80.5893 112.3505,-64.8453"/>
<polygon fill="#000000" stroke="#000000" points="114.6215,-62.1591 105.1517,-57.4079 109.5917,-67.0275 114.6215,-62.1591"/>
<text text-anchor="middle" x="216.3012" y="-98.8" font-family="Times,serif" font-size="14.00" fill="#000000">调用底层安装</text>
</g>
<!-- oma_apt -->
<g id="node10" class="node">
<title>oma_apt</title>
<polygon fill="#ffffe0" stroke="#000000" points="499.9017,-57.4019 324.0983,-57.4019 324.0983,-16.1981 499.9017,-16.1981 499.9017,-57.4019"/>
<text text-anchor="middle" x="412" y="-41" font-family="Times,serif" font-size="14.00" fill="#000000">oma&#45;apt</text>
<text text-anchor="middle" x="412" y="-24.2" font-family="Times,serif" font-size="14.00" fill="#000000">(封装libapt&#45;pkg→仓库交互)</text>
</g>
<!-- oma&#45;&gt;oma_apt -->
<g id="edge9" class="edge">
<title>oma&#45;&gt;oma_apt</title>
<path fill="none" stroke="#000000" d="M387.5313,-148.5125C392.2705,-126.8755 399.7635,-92.6662 405.2099,-67.8001"/>
<polygon fill="#000000" stroke="#000000" points="408.6841,-68.2965 407.4049,-57.7792 401.8462,-66.7987 408.6841,-68.2965"/>
<text text-anchor="middle" x="495.2374" y="-98.8" font-family="Times,serif" font-size="14.00" fill="#000000">触发→仓库索引拉取/签名验证</text>
</g>
<!-- oma_inquire -->
<g id="node12" class="node">
<title>oma_inquire</title>
<polygon fill="#ffffe0" stroke="#000000" points="303.9748,-57.4019 176.0252,-57.4019 176.0252,-16.1981 303.9748,-16.1981 303.9748,-57.4019"/>
<text text-anchor="middle" x="240" y="-41" font-family="Times,serif" font-size="14.00" fill="#000000">oma&#45;inquire</text>
<text text-anchor="middle" x="240" y="-24.2" font-family="Times,serif" font-size="14.00" fill="#000000">(交互式命令提示)</text>
</g>
<!-- oma&#45;&gt;oma_inquire -->
<g id="edge10" class="edge">
<title>oma&#45;&gt;oma_inquire</title>
<path fill="none" stroke="#000000" d="M331.9262,-148.4656C313.4964,-139.1586 293.5759,-126.7691 278.6304,-111.4 266.3693,-98.7914 257.0879,-81.509 250.6995,-66.7535"/>
<polygon fill="#000000" stroke="#000000" points="253.9395,-65.4295 246.917,-57.4964 247.4596,-68.0773 253.9395,-65.4295"/>
<text text-anchor="middle" x="334.1848" y="-98.8" font-family="Times,serif" font-size="14.00" fill="#000000">触发→交互式提示</text>
</g>
<!-- oma_apt_sources -->
<g id="node11" class="node">
<title>oma_apt_sources</title>
<polygon fill="#ffffe0" stroke="#000000" points="468.9152,-378.6019 283.0848,-378.6019 283.0848,-337.3981 468.9152,-337.3981 468.9152,-378.6019"/>
<text text-anchor="middle" x="376" y="-362.2" font-family="Times,serif" font-size="14.00" fill="#000000">oma&#45;apt&#45;sources&#45;lists</text>
<text text-anchor="middle" x="376" y="-345.4" font-family="Times,serif" font-size="14.00" fill="#000000">(APT源管理/优先级配置)</text>
</g>
<!-- oma_apt_sources&#45;&gt;oma -->
<g id="edge11" class="edge">
<title>oma_apt_sources&#45;&gt;oma</title>
<path fill="none" stroke="#000000" stroke-dasharray="5,2" d="M376.7759,-337.0737C378.009,-303.8135 380.4229,-238.7072 381.8552,-200.0773"/>
<polygon fill="#000000" stroke="#000000" points="385.3583,-200.0551 382.2313,-189.9323 378.3631,-199.7957 385.3583,-200.0551"/>
<text text-anchor="middle" x="425.6848" y="-259.4" font-family="Times,serif" font-size="14.00" fill="#000000">提供APT源列表</text>
</g>
<!-- p_vector_rs -->
<g id="node13" class="node">
<title>p_vector_rs</title>
<polygon fill="#ffd700" stroke="#000000" points="1303.6446,-378.6019 1036.3554,-378.6019 1036.3554,-337.3981 1303.6446,-337.3981 1303.6446,-378.6019"/>
<text text-anchor="middle" x="1170" y="-362.2" font-family="Times,serif" font-size="14.00" fill="#000000">p&#45;vector&#45;rs</text>
<text text-anchor="middle" x="1170" y="-345.4" font-family="Times,serif" font-size="14.00" fill="#000000">(生成APT仓库索引：Packages/InRelease)</text>
</g>
<!-- p_vector_rs&#45;&gt;repo -->
<g id="edge19" class="edge">
<title>p_vector_rs&#45;&gt;repo</title>
<path fill="none" stroke="#000000" stroke-dasharray="5,2" d="M1178.3175,-337.1463C1184.3121,-324.9499 1193.6438,-310.4181 1206.6248,-302.4 1246.0044,-278.0758 1366.5468,-268.999 1449.5672,-265.613"/>
<polygon fill="#000000" stroke="#000000" points="1449.8939,-269.103 1459.7508,-265.2183 1449.6228,-262.1083 1449.8939,-269.103"/>
<text text-anchor="middle" x="1265.6876" y="-306.6" font-family="Times,serif" font-size="14.00" fill="#000000">生成索引→存入仓库</text>
</g>
<!-- p_vector_rs&#45;&gt;oma_apt -->
<g id="edge12" class="edge">
<title>p_vector_rs&#45;&gt;oma_apt</title>
<path fill="none" stroke="#000000" d="M1140.7287,-337.091C1120.4196,-319.9357 1097,-293.6404 1097,-263.6 1097,-263.6 1097,-263.6 1097,-103 1097,-73.8719 699.4034,-50.7023 510.0373,-41.319"/>
<polygon fill="#000000" stroke="#000000" points="509.9602,-37.811 499.8002,-40.8151 509.616,-44.8026 509.9602,-37.811"/>
<text text-anchor="middle" x="1173.4099" y="-165" font-family="Times,serif" font-size="14.00" fill="#000000">提供索引→用于依赖解析</text>
</g>
<!-- dpkgrepo_meta -->
<g id="node14" class="node">
<title>dpkgrepo_meta</title>
<polygon fill="#ffd700" stroke="#000000" points="756.9318,-378.6019 525.0682,-378.6019 525.0682,-337.3981 756.9318,-337.3981 756.9318,-378.6019"/>
<text text-anchor="middle" x="641" y="-362.2" font-family="Times,serif" font-size="14.00" fill="#000000">dpkgrepo&#45;meta</text>
<text text-anchor="middle" x="641" y="-345.4" font-family="Times,serif" font-size="14.00" fill="#000000">(查询元数据：版本对比/架构匹配)</text>
</g>
<!-- dpkgrepo_meta&#45;&gt;oma -->
<g id="edge13" class="edge">
<title>dpkgrepo_meta&#45;&gt;oma</title>
<path fill="none" stroke="#000000" d="M628.5578,-337.2681C608.0797,-304.9025 564.1937,-242.5107 511,-208 502.5117,-202.493 493.2045,-197.7366 483.6033,-193.6348"/>
<polygon fill="#000000" stroke="#000000" points="484.9086,-190.3873 474.3249,-189.8996 482.2944,-196.8809 484.9086,-190.3873"/>
<text text-anchor="middle" x="668.7472" y="-259.4" font-family="Times,serif" font-size="14.00" fill="#000000">提供查询结果→依赖链生成</text>
</g>
<!-- aosc_os_feature -->
<g id="node15" class="node">
<title>aosc_os_feature</title>
<polygon fill="#ffd700" stroke="#000000" points="1018.9668,-378.6019 775.0332,-378.6019 775.0332,-337.3981 1018.9668,-337.3981 1018.9668,-378.6019"/>
<text text-anchor="middle" x="897" y="-362.2" font-family="Times,serif" font-size="14.00" fill="#000000">aosc&#45;os&#45;feature&#45;data</text>
<text text-anchor="middle" x="897" y="-345.4" font-family="Times,serif" font-size="14.00" fill="#000000">(核心依赖防护：防止误删关键包)</text>
</g>
<!-- aosc_os_feature&#45;&gt;oma -->
<g id="edge14" class="edge">
<title>aosc_os_feature&#45;&gt;oma</title>
<path fill="none" stroke="#000000" stroke-dasharray="5,2" d="M879.0535,-337.167C853.595,-309.083 804.1455,-259.7327 751,-234.8 708.1035,-214.6755 594.4077,-196.1652 504.6397,-183.9755"/>
<polygon fill="#000000" stroke="#000000" points="505.0275,-180.4963 494.6501,-182.6316 504.0941,-187.4338 505.0275,-180.4963"/>
<text text-anchor="middle" x="917.6764" y="-259.4" font-family="Times,serif" font-size="14.00" fill="#000000">提供防护规则→校验核心包操作</text>
</g>
<!-- aosc_repo_data -->
<g id="node16" class="node">
<title>aosc_repo_data</title>
<polygon fill="#dda0dd" stroke="#000000" points="1139.8295,-495.8019 918.1705,-495.8019 918.1705,-454.5981 1139.8295,-454.5981 1139.8295,-495.8019"/>
<text text-anchor="middle" x="1029" y="-479.4" font-family="Times,serif" font-size="14.00" fill="#000000">aosc&#45;os&#45;repository&#45;data</text>
<text text-anchor="middle" x="1029" y="-462.6" font-family="Times,serif" font-size="14.00" fill="#000000">(仓库元数据：镜像地址/分支/组件)</text>
</g>
<!-- aosc_repo_data&#45;&gt;oma_apt_sources -->
<g id="edge15" class="edge">
<title>aosc_repo_data&#45;&gt;oma_apt_sources</title>
<path fill="none" stroke="#000000" d="M917.9413,-456.8153C840.74,-444.6323 735.3497,-429.1845 642,-419.6 584.8569,-413.7329 569.0909,-423.992 513,-411.6 484.0309,-405.1999 453.1444,-393.5723 428.045,-382.7787"/>
<polygon fill="#000000" stroke="#000000" points="429.2889,-379.5026 418.7248,-378.6955 426.4799,-385.9143 429.2889,-379.5026"/>
<text text-anchor="middle" x="811.6059" y="-423.8" font-family="Times,serif" font-size="14.00" fill="#000000">提供官方源地址</text>
</g>
<!-- aosc_mirror -->
<g id="node17" class="node">
<title>aosc_mirror</title>
<polygon fill="#dda0dd" stroke="#000000" points="1287.9936,-495.8019 1158.0064,-495.8019 1158.0064,-454.5981 1287.9936,-454.5981 1287.9936,-495.8019"/>
<text text-anchor="middle" x="1223" y="-479.4" font-family="Times,serif" font-size="14.00" fill="#000000">aosc&#45;mirror</text>
<text text-anchor="middle" x="1223" y="-462.6" font-family="Times,serif" font-size="14.00" fill="#000000">(私有仓库同步工具)</text>
</g>
<!-- aosc_mirror&#45;&gt;repo -->
<g id="edge17" class="edge">
<title>aosc_mirror&#45;&gt;repo</title>
<path fill="none" stroke="#000000" stroke-dasharray="5,2" d="M1266.0128,-454.3373C1283.7867,-443.7661 1303.1889,-429.3712 1316,-411.6 1338.2726,-380.7041 1313.2695,-356.779 1339.5378,-329.2 1355.4041,-312.542 1404.872,-295.9207 1449.811,-283.5768"/>
<polygon fill="#000000" stroke="#000000" points="1450.8727,-286.9156 1459.615,-280.9304 1449.0484,-280.1575 1450.8727,-286.9156"/>
<text text-anchor="middle" x="1417.7311" y="-353.8" font-family="Times,serif" font-size="14.00" fill="#000000">同步官方仓库→搭建私有源</text>
</g>
<!-- repo_refresh -->
<g id="node18" class="node">
<title>repo_refresh</title>
<polygon fill="#dda0dd" stroke="#000000" points="1435.8627,-495.8019 1306.1373,-495.8019 1306.1373,-454.5981 1435.8627,-454.5981 1435.8627,-495.8019"/>
<text text-anchor="middle" x="1371" y="-479.4" font-family="Times,serif" font-size="14.00" fill="#000000">repo&#45;refresh</text>
<text text-anchor="middle" x="1371" y="-462.6" font-family="Times,serif" font-size="14.00" fill="#000000">(仓库自动刷新服务)</text>
</g>
<!-- repo_refresh&#45;&gt;repo -->
<g id="edge18" class="edge">
<title>repo_refresh&#45;&gt;repo</title>
<path fill="none" stroke="#000000" stroke-dasharray="5,2" d="M1424.7098,-454.5187C1455.7507,-441.5326 1490.6594,-424.8042 1501,-411.6 1527.4303,-377.8504 1533.1733,-327.0466 1533.8598,-294.6086"/>
<polygon fill="#000000" stroke="#000000" points="1537.3611,-294.3839 1533.9214,-284.3631 1530.3613,-294.3418 1537.3611,-294.3839"/>
<text text-anchor="middle" x="1591.1405" y="-353.8" font-family="Times,serif" font-size="14.00" fill="#000000">定时更新→确保包最新</text>
</g>
<!-- deploykit_backend -->
<g id="node19" class="node">
<title>deploykit_backend</title>
<polygon fill="#fa8072" stroke="#000000" points="448.9212,-651.0019 245.0788,-651.0019 245.0788,-609.7981 448.9212,-609.7981 448.9212,-651.0019"/>
<text text-anchor="middle" x="347" y="-634.6" font-family="Times,serif" font-size="14.00" fill="#000000">deploykit&#45;backend</text>
<text text-anchor="middle" x="347" y="-617.8" font-family="Times,serif" font-size="14.00" fill="#000000">(安装器后端：部署基础包)</text>
</g>
<!-- deploykit_backend&#45;&gt;oma -->
<g id="edge20" class="edge">
<title>deploykit_backend&#45;&gt;oma</title>
<path fill="none" stroke="#000000" d="M425.9534,-609.6813C462.0904,-597.8019 497,-581.7772 497,-564.2 497,-564.2 497,-564.2 497,-263.6 497,-232.8948 472.1627,-210.2869 445.6746,-194.907"/>
<polygon fill="#000000" stroke="#000000" points="447.1133,-191.7043 436.6619,-189.967 443.7487,-197.8427 447.1133,-191.7043"/>
<text text-anchor="middle" x="567.3815" y="-423.8" font-family="Times,serif" font-size="14.00" fill="#000000">调用→安装系统基础包</text>
</g>
<!-- aoscbootstrap -->
<g id="node20" class="node">
<title>aoscbootstrap</title>
<polygon fill="#fa8072" stroke="#000000" points="454.1511,-495.8019 237.8489,-495.8019 237.8489,-454.5981 454.1511,-454.5981 454.1511,-495.8019"/>
<text text-anchor="middle" x="346" y="-479.4" font-family="Times,serif" font-size="14.00" fill="#000000">aoscbootstrap</text>
<text text-anchor="middle" x="346" y="-462.6" font-family="Times,serif" font-size="14.00" fill="#000000">(系统初始化：配置OMA环境)</text>
</g>
<!-- deploykit_backend&#45;&gt;aoscbootstrap -->
<g id="edge21" class="edge">
<title>deploykit_backend&#45;&gt;aoscbootstrap</title>
<path fill="none" stroke="#000000" stroke-dasharray="5,2" d="M331.0067,-609.6976C323.8956,-599.1984 316.3169,-585.8805 312.6704,-572.6 306.3263,-549.495 315.7671,-523.8781 326.2002,-504.7166"/>
<polygon fill="#000000" stroke="#000000" points="329.3434,-506.2735 331.3368,-495.8679 323.2894,-502.7592 329.3434,-506.2735"/>
<text text-anchor="middle" x="397.1648" y="-560" font-family="Times,serif" font-size="14.00" fill="#000000">调用→初始化目录/源配置</text>
</g>
<!-- aoscbootstrap&#45;&gt;oma_apt_sources -->
<g id="edge22" class="edge">
<title>aoscbootstrap&#45;&gt;oma_apt_sources</title>
<path fill="none" stroke="#000000" stroke-dasharray="5,2" d="M335.669,-454.4124C331.7818,-443.883 329.0779,-430.9564 332.6718,-419.6 336.3637,-407.9339 343.1468,-396.565 350.2675,-386.8352"/>
<polygon fill="#000000" stroke="#000000" points="353.1822,-388.788 356.5429,-378.7403 347.6499,-384.4992 353.1822,-388.788"/>
<text text-anchor="middle" x="403.1641" y="-423.8" font-family="Times,serif" font-size="14.00" fill="#000000">生成环境→配置APT源</text>
</g>
</g>
</svg>
